<svg width="25" height="24" viewBox="0 0 25 24" fill="none" xmlns="http://www.w3.org/2000/svg">
<path d="M12.5 9C11.5054 9 10.5516 9.39509 9.84835 10.0983C9.14509 10.8016 8.75 11.7554 8.75 12.75C8.75 13.7446 9.14509 14.6984 9.84835 15.4017C10.5516 16.1049 11.5054 16.5 12.5 16.5C13.4946 16.5 14.4484 16.1049 15.1517 15.4017C15.8549 14.6984 16.25 13.7446 16.25 12.75C16.25 11.7554 15.8549 10.8016 15.1517 10.0983C14.4484 9.39509 13.4946 9 12.5 9Z" fill="#F7B417"/>
<path fill-rule="evenodd" clip-rule="evenodd" d="M9.844 3.07079C11.6134 2.97575 13.3866 2.97575 15.156 3.07079C16.123 3.12279 16.986 3.65579 17.488 4.46079L18.309 5.77779C18.549 6.16079 18.954 6.42079 19.419 6.48779C19.805 6.54179 20.189 6.60079 20.571 6.66479C22.003 6.90379 23 8.15779 23 9.57379V17.9998C23 18.7954 22.6839 19.5585 22.1213 20.1211C21.5587 20.6837 20.7956 20.9998 20 20.9998H5C4.20435 20.9998 3.44129 20.6837 2.87868 20.1211C2.31607 19.5585 2 18.7954 2 17.9998V9.57379C2 8.15779 2.997 6.90379 4.429 6.66479C4.811 6.60079 5.195 6.54179 5.58 6.48679C5.80561 6.45659 6.02189 6.37739 6.21364 6.25474C6.4054 6.13208 6.56799 5.96895 6.69 5.77679L7.512 4.46179C7.7605 4.05984 8.10216 3.72367 8.50808 3.48172C8.914 3.23977 9.37223 3.09816 9.844 3.07079ZM7.25 12.7498C7.25 11.3574 7.80312 10.022 8.78769 9.03748C9.77225 8.05291 11.1076 7.49979 12.5 7.49979C13.8924 7.49979 15.2277 8.05291 16.2123 9.03748C17.1969 10.022 17.75 11.3574 17.75 12.7498C17.75 14.1422 17.1969 15.4775 16.2123 16.4621C15.2277 17.4467 13.8924 17.9998 12.5 17.9998C11.1076 17.9998 9.77225 17.4467 8.78769 16.4621C7.80312 15.4775 7.25 14.1422 7.25 12.7498ZM19.25 11.2498C19.4489 11.2498 19.6397 11.1708 19.7803 11.0301C19.921 10.8895 20 10.6987 20 10.4998C20 10.3009 19.921 10.1101 19.7803 9.96946C19.6397 9.82881 19.4489 9.74979 19.25 9.74979C19.0511 9.74979 18.8603 9.82881 18.7197 9.96946C18.579 10.1101 18.5 10.3009 18.5 10.4998C18.5 10.6987 18.579 10.8895 18.7197 11.0301C18.8603 11.1708 19.0511 11.2498 19.25 11.2498Z" fill="#308D42"/>
</svg>
