<svg width="100" height="78" viewBox="0 0 100 78" fill="none" xmlns="http://www.w3.org/2000/svg">
<ellipse cx="49.9999" cy="39.0003" rx="30.5556" ry="30.6429" fill="#EF402B"/>
<path d="M44.8443 43.2323C46.2117 41.8612 48.0662 41.0909 49.9998 41.0909C51.9335 41.0909 53.788 41.8612 55.1554 43.2323M40.4248 38.8002C45.7123 33.4962 54.2859 33.4962 59.5748 38.8002M36.0054 34.3681C43.7345 26.6169 56.2651 26.6169 63.9943 34.3681M50.7359 47.6643L49.9998 48.4026L49.2637 47.6643C49.459 47.4687 49.7238 47.3588 49.9998 47.3588C50.2759 47.3588 50.5406 47.4687 50.7359 47.6643Z" stroke="white" stroke-width="2" stroke-linecap="round" stroke-linejoin="round"/>
<ellipse cx="8.68064" cy="17.0625" rx="6.07639" ry="6.09375" fill="#F7B417"/>
<ellipse cx="92.2119" cy="25.5938" rx="4.86111" ry="4.875" fill="#F7B417"/>
<ellipse cx="14.5956" cy="54.8438" rx="2.43056" ry="2.4375" fill="#F58C7F"/>
<ellipse cx="87.5123" cy="54.8438" rx="2.43056" ry="2.4375" fill="#F58C7F"/>
<rect x="-0.0607458" y="-0.70549" width="3.78107" height="31.6067" rx="1.89054" transform="matrix(0.764255 0.644914 -0.642763 0.766065 60.6433 24.9454)" fill="white" stroke="#EF402B"/>
</svg>
