<svg width="40" height="40" viewBox="0 0 40 40" fill="none" xmlns="http://www.w3.org/2000/svg">
<circle cx="20" cy="20" r="20" fill="#F1F8EC"/>
<path fill-rule="evenodd" clip-rule="evenodd" d="M27.4032 19.3252C23.3022 15.2252 16.6532 15.2252 12.5532 19.3252L12.5542 19.3262C12.4137 19.4669 12.3348 19.6575 12.3348 19.8562C12.3348 20.055 12.4137 20.2456 12.5542 20.3862L13.0842 20.9162C13.2248 21.0567 13.4154 21.1356 13.6142 21.1356C13.8129 21.1356 14.0035 21.0567 14.1442 20.9162C15.6913 19.3691 17.7897 18.5 19.9777 18.5C22.1656 18.5 24.264 19.3691 25.8112 20.9162C25.8808 20.9861 25.9636 21.0415 26.0547 21.0793C26.1458 21.1171 26.2435 21.1366 26.3422 21.1366C26.4408 21.1366 26.5385 21.1171 26.6296 21.0793C26.7207 21.0415 26.8035 20.9861 26.8732 20.9162L27.4032 20.3862C27.4729 20.3166 27.5282 20.2339 27.5659 20.1429C27.6036 20.0518 27.623 19.9543 27.623 19.8557C27.623 19.7572 27.6036 19.6596 27.5659 19.5686C27.5282 19.4776 27.4729 19.3949 27.4032 19.3252ZM17.7038 21.2063C16.9758 21.5079 16.3143 21.95 15.7572 22.5072L15.7582 22.5082C15.6177 22.6489 15.5388 22.8395 15.5388 23.0382C15.5388 23.237 15.6177 23.4276 15.7582 23.5682L16.2882 24.0982C16.4288 24.2387 16.6194 24.3176 16.8182 24.3176C17.0169 24.3176 17.2075 24.2387 17.3482 24.0982C17.6964 23.7499 18.1098 23.4736 18.5649 23.2851C19.0199 23.0966 19.5076 22.9995 20.0002 22.9995C20.4927 22.9995 20.9804 23.0966 21.4355 23.2851C21.8905 23.4736 22.3039 23.7499 22.6522 24.0982C22.7218 24.1679 22.8045 24.2232 22.8955 24.2609C22.9866 24.2987 23.0841 24.3181 23.1827 24.3181C23.2812 24.3181 23.3788 24.2987 23.4698 24.2609C23.5608 24.2232 23.6435 24.1679 23.7132 24.0982L24.2432 23.5682C24.3129 23.4986 24.3682 23.4159 24.4059 23.3249C24.4436 23.2338 24.463 23.1363 24.463 23.0377C24.463 22.9392 24.4436 22.8416 24.4059 22.7506C24.3682 22.6596 24.3129 22.5769 24.2432 22.5072C23.686 21.95 23.0245 21.5079 22.2965 21.2063C21.5685 20.9047 20.7882 20.7495 20.0002 20.7495C19.2122 20.7495 18.4319 20.9047 17.7038 21.2063ZM19.4259 25.3638C19.2439 25.4393 19.0785 25.5498 18.9392 25.6892L18.9402 25.6902C18.7997 25.8309 18.7208 26.0215 18.7208 26.2202C18.7208 26.419 18.7997 26.6096 18.9402 26.7502L19.4702 27.2802C19.5398 27.3499 19.6225 27.4052 19.7135 27.4429C19.8046 27.4807 19.9021 27.5001 20.0007 27.5001C20.0992 27.5001 20.1968 27.4807 20.2878 27.4429C20.3788 27.4052 20.4615 27.3499 20.5312 27.2802L21.0612 26.7502C21.1309 26.6806 21.1862 26.5979 21.2239 26.5069C21.2616 26.4158 21.281 26.3183 21.281 26.2197C21.281 26.1212 21.2616 26.0236 21.2239 25.9326C21.1862 25.8416 21.1309 25.7589 21.0612 25.6892C20.9219 25.5498 20.7565 25.4393 20.5744 25.3638C20.3924 25.2884 20.1972 25.2496 20.0002 25.2496C19.8031 25.2496 19.608 25.2884 19.4259 25.3638Z" fill="#308D42"/>
<path d="M9.37117 16.1432C15.2292 10.2862 24.7272 10.2862 30.5842 16.1432C30.6539 16.2129 30.7092 16.2956 30.7469 16.3866C30.7846 16.4776 30.804 16.5752 30.804 16.6737C30.804 16.7723 30.7846 16.8698 30.7469 16.9609C30.7092 17.0519 30.6539 17.1346 30.5842 17.2042L30.0542 17.7342C29.9135 17.8747 29.7229 17.9536 29.5242 17.9536C29.3254 17.9536 29.1348 17.8747 28.9942 17.7342C24.0142 12.7552 15.9412 12.7552 10.9622 17.7342C10.8215 17.8747 10.6309 17.9536 10.4322 17.9536C10.2334 17.9536 10.0428 17.8747 9.90217 17.7342L9.37217 17.2042C9.23172 17.0636 9.15283 16.873 9.15283 16.6742C9.15283 16.4755 9.23172 16.2849 9.37217 16.1442L9.37117 16.1432Z" fill="#F7B417"/>
</svg>
