<svg width="69" height="54" viewBox="0 0 69 54" fill="none" xmlns="http://www.w3.org/2000/svg">
<path d="M32.8134 3.49784C34.5649 1.93282 37.2124 1.93282 38.9639 3.49784L42.6205 6.7652C43.4001 7.46173 44.393 7.87301 45.4367 7.93169L50.3327 8.20695C52.6778 8.3388 54.5499 10.2109 54.6817 12.556L54.957 17.452C55.0157 18.4957 55.4269 19.4886 56.1235 20.2681L59.3908 23.9248C60.9558 25.6763 60.9558 28.3237 59.3908 30.0752L56.1235 33.7319C55.4269 34.5114 55.0157 35.5043 54.957 36.548L54.6817 41.444C54.5499 43.7891 52.6778 45.6612 50.3327 45.793L45.4367 46.0683C44.393 46.127 43.4001 46.5383 42.6205 47.2348L38.9639 50.5022C37.2124 52.0672 34.5649 52.0672 32.8134 50.5022L29.1568 47.2348C28.3773 46.5383 27.3844 46.127 26.3407 46.0683L21.4447 45.793C19.0995 45.6612 17.2275 43.7891 17.0956 41.444L16.8204 36.548C16.7617 35.5043 16.3504 34.5114 15.6539 33.7319L12.3865 30.0752C10.8215 28.3237 10.8215 25.6763 12.3865 23.9248L15.6539 20.2681C16.3504 19.4886 16.7617 18.4957 16.8204 17.452L17.0956 12.556C17.2275 10.2109 19.0995 8.3388 21.4447 8.20695L26.3407 7.93169C27.3844 7.87301 28.3773 7.46173 29.1568 6.7652L32.8134 3.49784Z" fill="#308D42"/>
<path d="M29.8311 27.2019L34.6772 32.0481L41.9464 21.1442" stroke="white" stroke-width="3.69231" stroke-linecap="round" stroke-linejoin="round"/>
<circle cx="5.25" cy="11.25" r="4.375" fill="#F7B417"/>
<circle cx="65.3926" cy="17.375" r="3.5" fill="#F7B417"/>
<circle cx="9.50879" cy="38.375" r="1.75" fill="#7CBC42"/>
<circle cx="62.0088" cy="38.375" r="1.75" fill="#7CBC42"/>
</svg>
