<svg width="100" height="78" viewBox="0 0 100 78" fill="none" xmlns="http://www.w3.org/2000/svg">
<path d="M20.4135 55.3903C17.6593 60.1746 21.1037 66.1517 26.6089 66.1517H73.3926C78.8947 66.1517 82.3391 60.1746 79.588 55.3903L56.1994 14.7308C53.4451 9.94652 46.5564 9.94652 43.8022 14.7308L20.4135 55.3903Z" fill="#EF402B"/>
<path d="M50 33.4287V43.8751V33.4287ZM50 52.2323H50.0194V52.2546H50V52.2323Z" fill="#EF402B"/>
<path d="M50 33.4287V43.8751M50 52.2323H50.0194V52.2546H50V52.2323Z" stroke="white" stroke-width="3.69" stroke-linecap="round" stroke-linejoin="round"/>
<ellipse cx="12.8474" cy="17.2363" rx="6.07639" ry="6.09375" fill="#F7B417"/>
<ellipse cx="86.8059" cy="24.375" rx="4.86111" ry="4.875" fill="#F7B417"/>
<ellipse cx="10.4291" cy="45.0938" rx="2.43056" ry="2.4375" fill="#EF402B"/>
<ellipse cx="88.9013" cy="56.2363" rx="2.43055" ry="2.4375" fill="#EF402B"/>
</svg>
